<svg width="36" height="36" viewBox="0 0 36 36" fill="none" xmlns="http://www.w3.org/2000/svg">
<g clip-path="url(#clip0_136_101)">
<path d="M35.3954 16.0934L32.3541 13.3223V4.13366C32.3541 3.54901 31.8802 3.07497 31.2955 3.07497H23.9749C23.3902 3.07497 22.9162 3.54894 22.9162 4.13366V4.72246L19.2433 1.37579C18.5344 0.729692 17.4653 0.729763 16.7566 1.37572L0.604536 16.0935C0.0366924 16.611 -0.150972 17.4083 0.126482 18.1247C0.404005 18.8411 1.07971 19.304 1.84801 19.304H4.42771V34.05C4.42771 34.6347 4.90169 35.1087 5.4864 35.1087H14.3397C14.9243 35.1087 15.3984 34.6347 15.3984 34.05V25.0967H20.6016V34.0501C20.6016 34.6347 21.0755 35.1088 21.6602 35.1088H30.5132C31.0978 35.1088 31.5719 34.6348 31.5718 34.0501V19.3041H34.152C34.9203 19.3041 35.596 18.8411 35.8736 18.1248C36.151 17.4083 35.9634 16.611 35.3954 16.0934ZM30.5132 17.1867C29.9285 17.1867 29.4545 17.6607 29.4545 18.2454V32.9914H22.719V24.038C22.719 23.4534 22.245 22.9793 21.6603 22.9793H14.3397C13.755 22.9793 13.281 23.4533 13.281 24.038V32.9914H6.54503V18.2454C6.54503 17.6607 6.07105 17.1867 5.48633 17.1867H2.54847L18.0001 3.10731L23.262 7.90199C23.5719 8.18436 24.0193 8.25714 24.4027 8.0879C24.7862 7.91844 25.0336 7.53861 25.0336 7.11941V5.19236H30.2369V13.7899C30.2369 14.0878 30.3623 14.3718 30.5826 14.5725L33.4515 17.1867H30.5132Z" fill="#7142F5"/>
</g>
<defs>
<clipPath id="clip0_136_101">
<rect width="36" height="36" fill="white"/>
</clipPath>
</defs>
</svg>
