<svg width="36" height="36" viewBox="0 0 36 36" fill="none" xmlns="http://www.w3.org/2000/svg">
<path d="M13.8239 17.1903C13.4121 16.7784 12.7442 16.7784 12.3324 17.1903C11.9205 17.6022 11.9205 18.2699 12.3324 18.6818L15.6136 21.9631C15.8196 22.169 16.0895 22.2721 16.3594 22.2721C16.6292 22.2721 16.8992 22.1691 17.1051 21.9631L23.6676 15.4006C24.0795 14.9887 24.0795 14.321 23.6676 13.9091C23.2557 13.4972 22.5879 13.4972 22.176 13.9091L16.3593 19.7258L13.8239 17.1903Z" fill="#0038FF"/>
<path d="M31.353 4.92188C28.3131 4.92188 25.5435 3.25153 24.1252 0.562641C23.9427 0.216562 23.5836 0 23.1924 0H12.8076C12.4164 0 12.0573 0.216562 11.8747 0.562641C10.4565 3.25153 7.68691 4.92188 4.64062 4.92188C4.05816 4.92188 3.58594 5.39409 3.58594 5.97656V16.7169C3.58594 21.0346 4.93502 25.1576 7.4873 28.6402C10.0397 32.1228 13.565 34.6508 17.6824 35.951C17.7858 35.9836 17.8928 35.9999 18 35.9999C18.1072 35.9999 18.2142 35.9836 18.3176 35.951C22.435 34.6508 25.9603 32.1228 28.5127 28.6402C31.065 25.1576 32.4141 21.0346 32.4141 16.7169V5.97656C32.4141 5.39409 31.9355 4.92188 31.353 4.92188V4.92188ZM30.3047 16.7169C30.3047 24.5225 25.374 31.3601 18 33.8361C10.626 31.3601 5.69531 24.5225 5.69531 16.7169V6.9783C8.88736 6.6543 11.742 4.86295 13.4211 2.10938H22.579C24.2571 4.86155 27.1101 6.65248 30.3047 6.97781V16.7169Z" fill="#0038FF"/>
<path d="M21.7686 4.60603C21.5683 4.36092 21.2684 4.21875 20.9519 4.21875H15.0481C14.7315 4.21875 14.4317 4.36092 14.2315 4.60603C12.7401 6.43071 10.7686 7.78423 8.52996 8.52012C8.09719 8.66236 7.80469 9.06645 7.80469 9.52207V16.7169C7.80469 23.176 11.6472 28.9518 17.5941 31.4315C17.724 31.4857 17.862 31.5127 18 31.5127C18.138 31.5127 18.276 31.4857 18.4059 31.4315C24.3528 28.9518 28.1953 23.176 28.1953 16.7169V9.52277C28.1953 9.06722 27.9029 8.66313 27.4701 8.52082C25.2314 7.78465 23.2599 6.43099 21.7686 4.60603V4.60603ZM26.0859 16.7169C26.0859 22.1735 22.9267 27.0677 18 29.3078C13.0733 27.0678 9.91406 22.1735 9.91406 16.7169V10.2641C12.0786 9.42286 14.0032 8.07638 15.5368 6.32812H20.4631C21.9968 8.07659 23.9212 9.42328 26.0859 10.2646V16.7169Z" fill="#0038FF"/>
</svg>
