<svg width="36" height="36" viewBox="0 0 36 36" fill="none" xmlns="http://www.w3.org/2000/svg">
<path d="M18.0001 23.8367C15.6293 23.8367 13.7007 25.7654 13.7007 28.1361C13.7007 30.5069 15.6294 32.4356 18.0001 32.4356C20.3708 32.4356 22.2996 30.5069 22.2996 28.1361C22.2996 25.7654 20.3708 23.8367 18.0001 23.8367ZM18.0001 30.3151C16.7986 30.3151 15.8211 29.3376 15.8211 28.1361C15.8211 26.9346 16.7986 25.9572 18.0001 25.9572C19.2016 25.9572 20.1791 26.9346 20.1791 28.1361C20.1791 29.3376 19.2017 30.3151 18.0001 30.3151Z" fill="#0BA7FF"/>
<path d="M28.3755 18.1656C22.6546 12.4446 13.3457 12.4446 7.62469 18.1656C6.10622 19.6841 6.10622 22.1549 7.62469 23.6733C8.3603 24.4089 9.33835 24.8141 10.3786 24.8141C11.4188 24.8141 12.3969 24.4089 13.1323 23.6733C14.4326 22.3731 16.1613 21.657 18.0001 21.657C19.839 21.657 21.5677 22.3731 22.8679 23.6733C23.6035 24.4088 24.5815 24.814 25.6217 24.814C26.662 24.814 27.6401 24.4089 28.3756 23.6733C29.894 22.1548 29.894 19.6841 28.3755 18.1656ZM26.8763 22.1739C26.5411 22.509 26.0956 22.6936 25.6217 22.6936C25.1478 22.6936 24.7024 22.509 24.3672 22.1739C22.6664 20.4732 20.4053 19.5366 18.0001 19.5366C15.5949 19.5366 13.3337 20.4732 11.6329 22.174C11.2978 22.5091 10.8524 22.6937 10.3785 22.6937C9.90464 22.6937 9.45907 22.5091 9.12396 22.174C8.4323 21.4822 8.4323 20.3567 9.12396 19.665C11.5715 17.2174 14.7852 15.9942 18.0001 15.9942C21.2142 15.9942 24.4293 17.2181 26.8763 19.6649C27.5679 20.3566 27.5679 21.4821 26.8763 22.1739Z" fill="#0BA7FF"/>
<path d="M34.8593 10.5479C30.356 6.04465 24.3686 3.56451 18 3.56451C11.6314 3.56451 5.64398 6.04465 1.14075 10.5479C0.40507 11.2835 0 12.2615 0 13.3017C0 14.342 0.40507 15.3201 1.14075 16.0556C1.89998 16.8149 2.89709 17.1945 3.89454 17.1944C4.89171 17.1943 5.88923 16.8147 6.6484 16.0556C9.67535 13.0286 13.7069 11.3615 18.0001 11.3615C22.2933 11.3615 26.3248 13.0285 29.3517 16.0556C30.0873 16.7911 31.0653 17.1962 32.1055 17.1962C33.1458 17.1962 34.1239 16.7911 34.8593 16.0556C35.5949 15.3201 36 14.3421 36 13.3017C36 12.2615 35.5949 11.2835 34.8593 10.5479ZM33.3599 14.5563C33.0248 14.8913 32.5793 15.0758 32.1054 15.0758C31.6315 15.0758 31.186 14.8912 30.8509 14.5563C27.4234 11.1287 22.8595 9.24112 17.9999 9.24112C13.1402 9.24112 8.5763 11.1287 5.14891 14.5562C4.45711 15.2478 3.33162 15.2478 2.63988 14.5562C2.30491 14.2211 2.12041 13.7756 2.12041 13.3017C2.12041 12.8279 2.30498 12.3823 2.64009 12.0472C6.7429 7.94449 12.1978 5.68493 18 5.68493C23.8022 5.68493 29.2572 7.94442 33.36 12.0473C33.6951 12.3823 33.8797 12.8278 33.8797 13.3017C33.8797 13.7756 33.695 14.2212 33.3599 14.5563Z" fill="#0BA7FF"/>
</svg>
