<svg width="77" height="44" viewBox="0 0 77 44" fill="none" xmlns="http://www.w3.org/2000/svg">
<g clip-path="url(#clip0_1603_15372)">
<rect width="77" height="44" fill="white"/>
<path d="M28.9242 16.7648C29.1612 17.1177 29.3981 17.4707 29.3981 17.8236C29.3981 18.1766 29.2797 18.5295 28.9242 18.8825C28.6872 19.2354 28.2133 19.3531 27.8578 19.3531C27.5024 19.3531 27.1469 19.2354 26.7915 18.8825L26.1991 18.2942L25.6067 18.7648C25.3697 19.1178 24.8957 19.2354 24.5403 19.2354C24.1848 19.2354 23.8294 19.1178 23.4739 18.7648C23.1185 18.5295 23 18.0589 23 17.706C23 17.353 23.1185 17.0001 23.4739 16.6471L24.0664 16.0589L23.4739 15.5883C23.1185 15.353 23 14.8824 23 14.5294C23 14.1765 23.1185 13.8235 23.4739 13.4706C23.7109 13.2353 24.1848 13 24.5403 13C24.8957 13 25.2512 13.1176 25.6067 13.4706L26.1991 14.0588L26.7915 13.5882C27.0285 13.3529 27.5024 13.1176 27.8578 13.1176C28.2133 13.1176 28.5688 13.2353 28.9242 13.5882C29.1612 13.9412 29.3981 14.2941 29.3981 14.6471C29.3981 15 29.2797 15.353 28.9242 15.7059L28.3318 16.1765L28.9242 16.7648Z" fill="#DE352F"/>
<path d="M43.261 20.5289V23.4701C43.261 27.8232 40.7728 30.8821 37.3368 30.8821C33.9008 30.8821 31.4126 27.7055 31.4126 23.4701V20.5289C31.4126 16.2935 34.0192 13.1169 37.3368 13.1169C38.9956 13.1169 40.5359 13.9405 41.6022 15.2346C42.6686 16.6464 43.261 18.5288 43.261 20.5289ZM40.2989 20.5289C40.2989 18.4112 39.2325 16.0582 37.3368 16.0582C35.441 16.0582 34.3747 18.2935 34.3747 20.5289V23.4701C34.3747 26.0584 35.5595 27.9408 37.3368 27.9408C39.114 27.9408 40.2989 26.0584 40.2989 23.4701V20.5289Z" fill="#DE352F"/>
<path d="M57.2407 20.5289V23.4701C57.2407 27.8232 54.7526 30.8821 51.3165 30.8821C47.8805 30.8821 45.3923 27.7055 45.3923 23.4701V20.5289C45.3923 16.2935 47.999 13.1169 51.3165 13.1169C52.9753 13.1169 54.5156 13.9405 55.582 15.2346C56.6483 16.6464 57.2407 18.5288 57.2407 20.5289ZM54.2786 20.5289C54.2786 18.4112 53.2123 16.0582 51.3165 16.0582C49.4208 16.0582 48.3544 18.2935 48.3544 20.5289V23.4701C48.3544 26.0584 49.5393 27.9408 51.3165 27.9408C53.0938 27.9408 54.2786 26.0584 54.2786 23.4701V20.5289Z" fill="#DE352F"/>
<path d="M59.7293 29.4703V16.1758C58.8999 16.1758 58.189 15.4699 58.189 14.6464C58.189 13.8228 58.8999 13.1169 59.7293 13.1169H61.2695C62.0989 13.1169 62.6913 13.8228 62.6913 14.6464V29.4703C62.6913 30.2938 61.9805 30.9997 61.1511 30.9997C60.3217 30.9997 59.7293 30.2938 59.7293 29.4703Z" fill="#DE352F"/>
<path d="M76.6716 20.5289V23.4701C76.6716 27.8232 74.1835 30.8821 70.7474 30.8821C67.3114 30.8821 64.8232 27.7055 64.8232 23.4701V20.5289C64.8232 16.2935 67.4299 13.1169 70.7474 13.1169C72.4062 13.1169 73.9465 13.9405 75.0129 15.2346C76.0792 16.6464 76.6716 18.5288 76.6716 20.5289ZM73.5911 20.5289C73.5911 18.4112 72.5247 16.0582 70.629 16.0582C68.7332 16.0582 67.6669 18.2935 67.6669 20.5289V23.4701C67.6669 26.0584 68.8517 27.9408 70.629 27.9408C72.4062 27.9408 73.5911 26.0584 73.5911 23.4701V20.5289Z" fill="#DE352F"/>
<path d="M33.9153 2.5057C33.9153 2.70615 33.9153 2.90661 33.8144 3.10706V3.20729C33.5116 4.20957 32.6031 4.91116 31.4928 4.91116C27.859 4.91116 24.2252 4.91116 20.5914 4.91116C20.4905 4.91116 20.3896 4.91116 20.2886 4.91116C19.9858 4.91116 19.7839 4.81093 19.4811 4.71071C19.4811 4.71071 19.4811 4.71071 19.3802 4.71071C19.2792 4.71071 19.0774 4.71071 18.9764 4.71071C17.2605 5.51253 15.6455 6.61504 14.2323 8.01822C12.5164 9.62187 11.2042 11.426 10.2957 13.4305C9.38727 15.3349 8.78164 17.4396 8.47883 19.7449C8.07507 22.7517 8.47883 25.6583 9.38727 28.5649C9.58915 29.0661 9.69009 29.467 9.89196 29.9681C10.0938 30.5695 9.89196 31.1708 9.38727 31.4715C9.48821 31.8724 9.69009 32.1731 9.79103 32.4738C10.0938 33.0752 10.4976 33.6765 10.9013 34.2779C11.507 35.0797 12.2135 35.7813 13.0211 36.3827C15.1408 38.0866 17.4623 39.3895 19.9858 40.3918C20.4905 40.5923 20.9952 40.7927 21.4999 40.9932C21.4999 40.9932 21.6008 40.8929 21.6008 40.7927C21.9036 40.2916 22.3074 39.9909 23.014 39.9909C24.1243 39.9909 25.2346 39.9909 26.3449 39.9909C26.8496 39.9909 27.2534 40.1913 27.4552 40.5923C27.9599 41.3941 27.9599 42.5968 27.4552 43.3986C27.1524 43.7995 26.8496 44 26.3449 44C25.2346 44 24.0233 44 22.913 44C22.5093 44 22.1055 43.7995 21.9036 43.4989C21.7018 43.2984 21.6008 42.9977 21.4999 42.697C21.3989 42.5968 21.3989 42.4966 21.298 42.3964C20.5914 42.0957 19.8849 41.8952 19.0774 41.5945C16.453 40.492 13.9295 39.0888 11.7089 37.1845C10.6995 36.2825 9.79103 35.2802 9.08446 34.1777C8.6807 33.5763 8.37789 32.9749 8.17601 32.2734V32.1731C7.77226 32.2733 7.3685 32.3736 6.86381 32.3736C5.55161 32.4738 4.34035 31.9727 3.33097 31.1708C1.71595 29.8679 0.807507 28.2642 0.302815 26.2597C0.201877 25.959 0.201877 25.5581 0.100938 25.2574C0 24.7563 0 24.2551 0 23.6538C0 22.5513 0.201877 21.549 0.504692 20.5467C0.908446 19.4442 1.51408 18.4419 2.52346 17.6401C3.53284 16.9385 4.64317 16.6378 5.85443 16.8383H5.95537C6.15724 16.1367 6.46006 15.3349 6.76287 14.4328C6.76287 14.3326 6.86381 14.1321 6.96475 14.0319C9.08446 8.51936 12.7182 4.41002 18.068 1.90433C18.1689 1.90433 18.1689 1.8041 18.2699 1.70387C18.2699 1.70387 18.2699 1.70387 18.2699 1.60365C18.4717 1.20273 18.6736 0.801822 18.9764 0.501139C18.9764 0.501139 18.9764 0.501139 19.0774 0.501139C19.4811 0.200456 19.9858 0 20.4905 0C22.1055 0 28.9693 0 31.3918 0C32.805 0 33.9153 1.10251 33.9153 2.5057Z" fill="#DE352F"/>
</g>
<defs>
<clipPath id="clip0_1603_15372">
<rect width="77" height="44" fill="white"/>
</clipPath>
</defs>
</svg>
