<svg width="36" height="36" viewBox="0 0 36 36" fill="none" xmlns="http://www.w3.org/2000/svg">
<path d="M29.2713 17.0328L24.1768 11.9381V3.16406C24.1768 1.4194 22.7574 0 21.0127 0H7.23145C5.48678 0 4.06738 1.4194 4.06738 3.16406V32.8359C4.06738 34.5806 5.48678 36 7.23145 36H28.7471C29.2495 36 29.6822 35.6456 29.7811 35.153L31.7465 25.3692C32.3605 22.313 31.4352 19.1966 29.2713 17.0328ZM7.23145 2.10938H21.0127C21.5942 2.10938 22.0674 2.58251 22.0674 3.16406V16.7681C20.7738 15.4922 18.6955 15.4992 17.4107 16.7839C16.1232 18.0693 16.117 20.156 17.4021 21.4498L21.442 25.6498C20.5662 26.3034 19.4316 27.4442 18.6169 29.3203H6.17676V3.16406C6.17676 2.58251 6.64982 2.10938 7.23145 2.10938ZM6.17676 32.8359V31.4297H17.935C17.7678 32.1692 17.6496 32.987 17.5975 33.8906H7.23145C6.64982 33.8906 6.17676 33.4175 6.17676 32.8359ZM29.6785 24.9538L27.8832 33.8906C26.1872 33.8906 21.4531 33.8906 19.7118 33.8906C19.8639 31.6504 20.5087 29.773 21.5994 28.4179C22.5036 27.2943 23.4243 26.8915 23.4976 26.8607C24.1877 26.6137 24.4344 25.7179 23.8822 25.1439C18.8954 19.9593 18.9107 19.9751 18.9017 19.9662C18.4385 19.503 18.4312 18.7459 18.9017 18.2761C19.3667 17.8112 20.1225 17.8099 20.589 18.2727C22.8187 20.5533 21.7345 19.4589 25.6364 23.3608C26.0482 23.7727 26.716 23.7727 27.1279 23.3608C27.5398 22.9489 27.5398 22.2811 27.1279 21.8692L24.1768 18.9181V14.9213L27.7798 18.5243C29.4432 20.1878 30.1531 22.5913 29.6785 24.9538Z" fill="#4260F5"/>
</svg>
