<svg width="36" height="36" viewBox="0 0 36 36" fill="none" xmlns="http://www.w3.org/2000/svg">
<path d="M35.9999 25.423C35.9999 23.3164 35.3691 21.2824 34.1755 19.5407C33.3169 18.2879 32.2114 17.2476 30.9302 16.4745C32.4386 15.046 33.3824 13.027 33.3824 10.7905C33.3824 6.47182 29.8688 2.95825 25.5502 2.95825C22.9894 2.95825 20.5906 4.22474 19.1335 6.30375C18.7633 6.24982 18.385 6.22073 18 6.22073C17.6149 6.22073 17.2367 6.24991 16.8665 6.30375C15.4093 4.22474 13.0105 2.95825 10.4498 2.95825C6.1311 2.95825 2.61754 6.47182 2.61754 10.7905C2.61754 13.027 3.56131 15.046 5.0698 16.4745C3.78853 17.2475 2.68297 18.2879 1.82453 19.5406C0.630923 21.2824 0 23.3164 0 25.423V29.7794H7.55029V33.0418H28.4498V29.7794H36V25.423H35.9999ZM25.5502 4.89132C28.8031 4.89132 31.4494 7.53766 31.4494 10.7906C31.4494 14.0435 28.8031 16.6898 25.5502 16.6898C25.492 16.6898 25.4337 16.6889 25.3753 16.6872C25.3798 16.6748 25.3834 16.6622 25.3878 16.6498C25.4885 16.3643 25.5725 16.0711 25.6398 15.7716C25.6446 15.7503 25.65 15.7292 25.6545 15.7079C25.672 15.6271 25.6874 15.5455 25.7024 15.4637C25.7094 15.4251 25.7167 15.3865 25.7232 15.3477C25.7353 15.2748 25.7463 15.2015 25.7565 15.128C25.7635 15.0768 25.7699 15.0257 25.776 14.9745C25.7837 14.9095 25.7911 14.8445 25.7972 14.7791C25.8034 14.7123 25.808 14.6454 25.8125 14.5784C25.8159 14.5257 25.8203 14.4731 25.8227 14.42C25.828 14.3063 25.831 14.1923 25.8314 14.0783C25.8314 14.0699 25.8321 14.0616 25.8321 14.0531C25.8321 14.0486 25.8317 14.0441 25.8317 14.0395C25.8315 13.923 25.8281 13.8073 25.8229 13.6919C25.8213 13.6583 25.8193 13.6249 25.8174 13.5914C25.8117 13.4933 25.8042 13.3957 25.7951 13.2986C25.7929 13.2766 25.7912 13.2545 25.789 13.2326C25.4969 10.4096 23.7134 7.99326 21.1406 6.87562C22.2493 5.63011 23.8529 4.89132 25.5502 4.89132ZM15.9588 8.51778C15.9777 8.51091 15.9967 8.50444 16.0156 8.49767C16.0742 8.4767 16.1334 8.45679 16.1928 8.43756C16.2379 8.42316 16.2832 8.40924 16.3288 8.3959C16.3619 8.38614 16.3952 8.37676 16.4285 8.36749C16.4881 8.35115 16.5479 8.33521 16.6083 8.32061C17.0548 8.21217 17.5205 8.15331 17.9998 8.15331C18.4794 8.1537 18.9453 8.21266 19.3919 8.3211C19.4519 8.33559 19.5113 8.35144 19.5706 8.36768C19.6044 8.37706 19.6382 8.38653 19.6718 8.39648C19.7168 8.40972 19.7617 8.42345 19.8062 8.43765C19.8664 8.45708 19.9263 8.47718 19.9856 8.49845C20.0039 8.50492 20.0221 8.51111 20.0403 8.51778C22.0132 9.24738 23.4924 11.0032 23.8272 13.134C23.8298 13.151 23.8323 13.1681 23.8348 13.1852C23.8456 13.2574 23.8545 13.3302 23.8626 13.4032C23.8655 13.43 23.8686 13.4568 23.8712 13.4838C23.8775 13.5504 23.8823 13.6174 23.8865 13.6847C23.8883 13.7135 23.8907 13.7422 23.892 13.7711C23.8961 13.857 23.8983 13.9434 23.8986 14.0303C23.8986 14.0379 23.8991 14.0452 23.8991 14.0527C23.8991 14.0562 23.8989 14.0598 23.8989 14.0633C23.8987 14.1474 23.8962 14.2309 23.8925 14.3141C23.8914 14.3403 23.8902 14.3665 23.8887 14.3926C23.8841 14.473 23.8781 14.553 23.8704 14.6324C23.8674 14.6632 23.8633 14.6938 23.8599 14.7245C23.854 14.7759 23.8474 14.8272 23.8402 14.8782C23.8346 14.9179 23.829 14.9578 23.8227 14.9973C23.8129 15.0575 23.8021 15.1173 23.7905 15.177C23.7801 15.23 23.7688 15.2829 23.757 15.3357C23.75 15.3675 23.7426 15.3993 23.735 15.4309C23.7161 15.5092 23.6955 15.5871 23.6734 15.6648C23.6646 15.6956 23.6564 15.7266 23.6471 15.7572C23.6337 15.8016 23.6192 15.8457 23.6048 15.8898C23.5932 15.925 23.5813 15.9601 23.569 15.9951C23.5551 16.0348 23.5414 16.0746 23.5267 16.1141C23.5017 16.1811 23.4754 16.2474 23.448 16.3133C23.4359 16.3426 23.4229 16.3717 23.4103 16.401C23.3864 16.4558 23.3618 16.5103 23.3363 16.5643C23.3333 16.5706 23.3303 16.577 23.3273 16.5834C23.3181 16.6025 23.3091 16.6218 23.2997 16.6409C23.2711 16.6993 23.2413 16.757 23.2108 16.8142C23.1989 16.8364 23.1874 16.8589 23.1752 16.8811C23.1744 16.8825 23.1737 16.8839 23.1729 16.8852C23.1394 16.9461 23.1046 17.006 23.0691 17.0656C23.055 17.0892 23.0411 17.1128 23.0267 17.1361C22.988 17.1989 22.9483 17.2609 22.9074 17.322C22.882 17.36 22.8554 17.3972 22.8291 17.4346C22.8068 17.4663 22.7845 17.4981 22.7616 17.5293C22.732 17.5697 22.7017 17.6096 22.671 17.6493C22.6501 17.6763 22.629 17.7031 22.6078 17.7298C22.5753 17.7703 22.5425 17.8107 22.5091 17.8505C22.4883 17.8751 22.467 17.8993 22.4458 17.9235C22.411 17.9634 22.3763 18.0035 22.3405 18.0424C22.3193 18.0655 22.2972 18.0877 22.2756 18.1105C22.2174 18.1719 22.1579 18.2319 22.0972 18.2908C22.0611 18.3257 22.0253 18.3607 21.9884 18.3946C21.9628 18.4181 21.9366 18.4409 21.9106 18.464C21.8683 18.5016 21.8257 18.5388 21.7823 18.5751C21.7603 18.5936 21.738 18.6119 21.7157 18.63C21.6632 18.6728 21.6101 18.7146 21.556 18.7556C21.5414 18.7667 21.5269 18.778 21.5121 18.789C20.5301 19.519 19.3147 19.9517 17.9999 19.9517C16.685 19.9517 15.4693 19.5189 14.4874 18.7887C14.4729 18.7779 14.4586 18.7668 14.4442 18.7559C14.39 18.7148 14.3366 18.6727 14.2839 18.6297C14.2618 18.6117 14.2396 18.5936 14.2178 18.5752C14.1742 18.5387 14.1315 18.5013 14.089 18.4636C14.0632 18.4406 14.0371 18.418 14.0116 18.3946C13.9746 18.3606 13.9387 18.3255 13.9025 18.2906C13.8415 18.2316 13.7819 18.1713 13.7235 18.1098C13.7022 18.0873 13.6803 18.0653 13.6594 18.0425C13.6235 18.0035 13.5888 17.9634 13.554 17.9234C13.5328 17.8992 13.5116 17.8751 13.4908 17.8505C13.4573 17.8107 13.4246 17.7703 13.3921 17.7298C13.3709 17.7032 13.3497 17.6764 13.3288 17.6493C13.2982 17.6097 13.2679 17.5698 13.2383 17.5294C13.2154 17.4981 13.193 17.4662 13.1707 17.4344C13.1444 17.3971 13.1179 17.36 13.0926 17.3221C13.0515 17.2607 13.0116 17.1985 12.9729 17.1356C12.9587 17.1125 12.9449 17.0892 12.931 17.0659C12.895 17.0055 12.8597 16.9448 12.8258 16.883C12.8133 16.8603 12.8015 16.8372 12.7892 16.8144C12.7587 16.757 12.7288 16.6991 12.7001 16.6406C12.6899 16.6198 12.6799 16.5989 12.67 16.578C12.6684 16.5748 12.667 16.5716 12.6655 16.5684C12.6388 16.512 12.6131 16.455 12.5881 16.3974C12.5762 16.3701 12.5641 16.3428 12.5527 16.3154C12.5247 16.2481 12.4979 16.1803 12.4723 16.1119C12.4585 16.0749 12.4457 16.0376 12.4327 16.0004C12.4193 15.9622 12.4063 15.9238 12.3936 15.8852C12.38 15.8435 12.3663 15.8017 12.3535 15.7598C12.3345 15.697 12.3165 15.6339 12.2996 15.5704C12.2877 15.5259 12.277 15.4809 12.2661 15.4361C12.2576 15.4008 12.2494 15.3655 12.2415 15.3301C12.2319 15.2866 12.2221 15.2432 12.2134 15.1995C12.2 15.1314 12.1877 15.063 12.1767 14.9942C12.1707 14.9571 12.1655 14.9199 12.1601 14.8828C12.1523 14.8278 12.1453 14.7725 12.139 14.717C12.1359 14.6897 12.1323 14.6623 12.1295 14.635C12.1215 14.5535 12.1154 14.4714 12.1108 14.3891C12.1094 14.3654 12.1083 14.3417 12.1073 14.3181C12.1033 14.23 12.1005 14.1417 12.1005 14.0527C12.1005 13.9575 12.1032 13.8628 12.1078 13.7686C12.109 13.743 12.1111 13.7176 12.1126 13.6921C12.1168 13.6213 12.122 13.5508 12.1287 13.4806C12.1311 13.4561 12.1339 13.4318 12.1365 13.4074C12.1448 13.3315 12.1542 13.2559 12.1654 13.1808C12.1675 13.1662 12.1696 13.1515 12.1719 13.1369C12.5057 11.0048 13.9852 9.24786 15.9588 8.51778ZM4.55051 10.7906C4.55051 7.53776 7.19685 4.89132 10.4498 4.89132C12.1472 4.89132 13.7507 5.6302 14.8594 6.87542C12.2857 7.99346 10.5018 10.4109 10.2106 13.2351C10.2086 13.2542 10.2072 13.2735 10.2053 13.2927C10.1957 13.3933 10.188 13.4943 10.1822 13.5959C10.1805 13.6268 10.1786 13.6576 10.1771 13.6887C10.1716 13.8096 10.1678 13.9309 10.1678 14.053C10.1678 14.1764 10.1714 14.2994 10.1772 14.4223C10.1795 14.4718 10.1836 14.5208 10.1868 14.57C10.1915 14.6408 10.1963 14.7115 10.2029 14.7821C10.2087 14.8448 10.2159 14.9071 10.2232 14.9695C10.2296 15.0238 10.2364 15.0779 10.2439 15.132C10.2538 15.2031 10.2644 15.2738 10.2761 15.3443C10.2831 15.3861 10.2909 15.4279 10.2985 15.4696C10.313 15.5485 10.3278 15.6272 10.3446 15.7052C10.3502 15.7309 10.3566 15.7564 10.3624 15.782C10.428 16.0722 10.5095 16.3564 10.6065 16.6335C10.6127 16.6513 10.6181 16.6694 10.6244 16.6872C10.5661 16.6889 10.5077 16.6898 10.4496 16.6898C7.19685 16.6897 4.55051 14.0434 4.55051 10.7906ZM9.1708 23.1134C9.14954 23.1469 9.12924 23.181 9.10837 23.2148C9.0642 23.2861 9.02042 23.3576 8.97808 23.4298C8.95441 23.4701 8.9316 23.5107 8.90859 23.5513C8.87052 23.6183 8.83292 23.6854 8.79639 23.7532C8.77338 23.7958 8.75077 23.8386 8.72834 23.8814C8.69316 23.9488 8.65885 24.0166 8.62522 24.0845C8.60405 24.1272 8.58299 24.1698 8.5625 24.2128C8.52828 24.2844 8.49532 24.3566 8.46275 24.4289C8.44507 24.4682 8.4269 24.5072 8.40979 24.5468C8.3721 24.6334 8.33614 24.7206 8.30087 24.8082C8.29053 24.8338 8.27951 24.8591 8.26946 24.8848C8.22471 24.9985 8.18189 25.113 8.1413 25.2281C8.13202 25.2545 8.12371 25.2812 8.11453 25.3076C8.08399 25.3963 8.05422 25.4853 8.0261 25.5747C8.01324 25.6158 8.00135 25.6571 7.98898 25.6982C7.96627 25.774 7.94394 25.8499 7.92297 25.9262C7.9105 25.9717 7.89862 26.0172 7.88673 26.0628C7.86759 26.1361 7.84923 26.2095 7.83183 26.2833C7.82072 26.3299 7.80989 26.3766 7.79955 26.4234C7.78293 26.4981 7.76737 26.5731 7.75239 26.6482C7.7434 26.6933 7.73412 26.7385 7.72571 26.7838C7.71054 26.8656 7.69691 26.9477 7.68367 27.03C7.67748 27.0686 7.67062 27.1071 7.66482 27.1458C7.64685 27.2666 7.63051 27.3877 7.61679 27.5093C7.61659 27.5108 7.6165 27.5122 7.6164 27.5137C7.60393 27.6244 7.59321 27.7352 7.58422 27.8465H1.93297V25.423C1.93297 22.112 3.83637 19.1396 6.81837 17.7268C7.9047 18.2978 9.13959 18.6228 10.4497 18.6228C10.8285 18.6228 11.2085 18.5948 11.5857 18.5393C11.6444 18.6231 11.7042 18.706 11.766 18.7874C11.7869 18.8147 11.8085 18.8414 11.8298 18.8685C11.8909 18.9466 11.9528 19.0238 12.0168 19.0995C12.043 19.1305 12.0699 19.1608 12.0966 19.1915C12.1565 19.2603 12.2174 19.3282 12.2796 19.3948C12.3123 19.4299 12.3455 19.4644 12.3788 19.4989C12.4357 19.5576 12.4934 19.6154 12.5521 19.6723C12.5741 19.6937 12.5949 19.7163 12.6171 19.7374C12.5331 19.7882 12.4499 19.8402 12.3675 19.8932C12.354 19.9018 12.3409 19.9109 12.3275 19.9196C12.2451 19.9732 12.1635 20.0279 12.0827 20.0836C12.0548 20.103 12.027 20.1225 11.9991 20.142C11.9271 20.1927 11.8559 20.2444 11.7852 20.2968C11.7629 20.3135 11.7403 20.3297 11.7182 20.3465C11.6283 20.4145 11.5395 20.4837 11.4518 20.5544C11.4327 20.5699 11.4139 20.5858 11.3948 20.6015C11.325 20.6586 11.2559 20.7167 11.1877 20.7756C11.1612 20.7984 11.1349 20.8214 11.1086 20.8445C11.0403 20.9048 10.9728 20.9658 10.906 21.0278C10.8886 21.0439 10.8709 21.0598 10.8536 21.0761C10.7716 21.1532 10.6909 21.2318 10.6114 21.3117C10.5907 21.3325 10.5705 21.3537 10.55 21.3746C10.4891 21.4367 10.4289 21.4995 10.3694 21.5632C10.3459 21.5885 10.3223 21.6139 10.2989 21.6395C10.232 21.7125 10.1661 21.7866 10.1012 21.8617C10.0911 21.8735 10.0806 21.8849 10.0704 21.8968C9.99647 21.9831 9.92418 22.071 9.85285 22.1598C9.83294 22.1846 9.81352 22.2097 9.7939 22.2347C9.74026 22.3029 9.68739 22.3717 9.63539 22.4412C9.61529 22.468 9.59509 22.4947 9.57528 22.5218C9.50724 22.6146 9.44007 22.7081 9.37483 22.8033C9.30476 22.9056 9.23691 23.0091 9.1708 23.1134ZM9.48327 31.1089V29.7795V28.6855C9.48327 28.5782 9.4853 28.4713 9.48926 28.3647C9.49052 28.3296 9.49332 28.2948 9.49506 28.2598C9.49854 28.1887 9.50182 28.1175 9.50704 28.0466C9.51023 28.0036 9.51507 27.961 9.51893 27.9181C9.52454 27.8556 9.52956 27.7931 9.53652 27.7311C9.54164 27.6856 9.54831 27.6405 9.55411 27.5952C9.56165 27.5361 9.56871 27.477 9.5774 27.4182C9.58446 27.3714 9.59296 27.325 9.6007 27.2785C9.61017 27.2218 9.61896 27.165 9.62959 27.1086C9.63858 27.061 9.64902 27.0138 9.65878 26.9664C9.66999 26.9117 9.68072 26.8568 9.693 26.8025C9.70382 26.7545 9.71619 26.7071 9.72779 26.6593C9.74084 26.6062 9.7533 26.5527 9.76732 26.4998C9.78008 26.4518 9.79419 26.4043 9.80772 26.3566C9.82241 26.3047 9.83671 26.2527 9.85237 26.2012C9.86696 26.1533 9.88301 26.1057 9.89837 26.0581C9.9148 26.0075 9.93075 25.9569 9.94805 25.9067C9.96448 25.8593 9.98217 25.8122 9.99937 25.7651C10.0175 25.7154 10.0353 25.6656 10.0544 25.6163C10.0725 25.5694 10.0919 25.5231 10.1107 25.4765C10.1305 25.4279 10.15 25.379 10.1707 25.3308C10.1907 25.2843 10.2118 25.2383 10.2326 25.1923C10.2539 25.1448 10.2751 25.0972 10.2973 25.0502C10.3191 25.0043 10.3419 24.959 10.3644 24.9135C10.3874 24.8671 10.4101 24.8206 10.4339 24.7747C10.4574 24.7294 10.4818 24.6848 10.5061 24.64C10.5307 24.5947 10.5549 24.5494 10.5802 24.5045C10.6054 24.4601 10.6315 24.4163 10.6573 24.3723C10.6834 24.3281 10.7093 24.2837 10.7362 24.2398C10.763 24.1962 10.7906 24.1533 10.8182 24.1102C10.8458 24.067 10.8733 24.0238 10.9017 23.9811C10.9301 23.9384 10.9593 23.8962 10.9885 23.8541C11.0176 23.812 11.0466 23.77 11.0763 23.7284C11.1063 23.6867 11.1371 23.6455 11.168 23.6043C11.1985 23.5634 11.2289 23.5225 11.2602 23.4822C11.2917 23.4415 11.3239 23.4014 11.3562 23.3612C11.3882 23.3214 11.4203 23.2816 11.453 23.2424C11.4859 23.203 11.5196 23.164 11.5532 23.1252C11.5867 23.0864 11.6204 23.0477 11.6547 23.0094C11.689 22.9711 11.7241 22.9334 11.7591 22.8957C11.794 22.8581 11.829 22.8207 11.8647 22.7838C11.9005 22.7467 11.9369 22.7102 11.9734 22.6737C12.0099 22.6373 12.0465 22.601 12.0836 22.5652C12.1206 22.5295 12.1582 22.4943 12.196 22.4593C12.2339 22.4241 12.272 22.389 12.3105 22.3544C12.349 22.32 12.3879 22.2861 12.427 22.2523C12.4662 22.2184 12.5058 22.1847 12.5457 22.1514C12.5854 22.1184 12.6255 22.0858 12.6659 22.0534C12.7066 22.0208 12.7476 21.9884 12.7889 21.9564C12.8298 21.9249 12.8711 21.8938 12.9126 21.8628C12.9547 21.8314 12.9971 21.8004 13.04 21.7698C13.082 21.7397 13.1243 21.7101 13.1669 21.6807C13.2106 21.6507 13.2545 21.621 13.2988 21.5917C13.3418 21.5633 13.3852 21.5352 13.4288 21.5075C13.4739 21.4788 13.5193 21.4504 13.565 21.4226C13.6091 21.3957 13.6535 21.3692 13.6981 21.3431C13.7445 21.3159 13.7913 21.2891 13.8384 21.2627C13.8835 21.2374 13.9289 21.2124 13.9746 21.1878C14.0225 21.1621 14.0707 21.1369 14.1192 21.112C14.1652 21.0883 14.2114 21.065 14.258 21.0421C14.2946 21.0241 14.3317 21.0067 14.3687 20.9892C15.4549 21.5602 16.69 21.8852 18 21.8852C19.31 21.8852 20.545 21.5602 21.6312 20.9892C21.668 21.0066 21.7047 21.0239 21.741 21.0417C21.7882 21.0649 21.8349 21.0885 21.8815 21.1124C21.9294 21.137 21.9771 21.1619 22.0245 21.1874C22.0707 21.2122 22.1166 21.2375 22.1622 21.2631C22.2087 21.2892 22.2549 21.3156 22.3007 21.3425C22.3461 21.369 22.391 21.3959 22.4356 21.4232C22.4808 21.4507 22.5255 21.4786 22.57 21.5069C22.6143 21.535 22.6581 21.5634 22.7017 21.5923C22.7455 21.6212 22.7889 21.6506 22.832 21.6803C22.875 21.7099 22.9178 21.7398 22.9603 21.7701C23.0027 21.8005 23.0446 21.8312 23.0864 21.8624C23.1283 21.8935 23.17 21.9249 23.2112 21.9568C23.2522 21.9885 23.2928 22.0206 23.3332 22.0529C23.3738 22.0855 23.4142 22.1183 23.4542 22.1515C23.4939 22.1846 23.5332 22.2181 23.5722 22.2518C23.6116 22.2858 23.6507 22.3199 23.6894 22.3546C23.7276 22.3889 23.7654 22.4237 23.803 22.4586C23.8411 22.494 23.8791 22.5295 23.9165 22.5656C23.9533 22.601 23.9896 22.637 24.0256 22.673C24.0623 22.7098 24.0991 22.7466 24.1351 22.7839C24.1705 22.8206 24.2054 22.8577 24.2401 22.895C24.2754 22.933 24.3107 22.9711 24.3453 23.0097C24.3793 23.0476 24.4127 23.0859 24.4459 23.1244C24.4799 23.1635 24.5138 23.2028 24.5469 23.2426C24.5795 23.2815 24.6113 23.3211 24.6431 23.3606C24.6756 23.401 24.708 23.4413 24.7397 23.4823C24.7709 23.5224 24.8011 23.5631 24.8315 23.6038C24.8624 23.6451 24.8933 23.6866 24.9235 23.7285C24.9532 23.7698 24.982 23.8118 25.0109 23.8536C25.0402 23.8959 25.0696 23.9383 25.0981 23.9812C25.1263 24.0236 25.1536 24.0665 25.181 24.1094C25.2088 24.1528 25.2366 24.1961 25.2636 24.24C25.2903 24.2834 25.316 24.3275 25.3419 24.3714C25.368 24.4156 25.3943 24.4598 25.4195 24.5045C25.4447 24.5492 25.4689 24.5944 25.4933 24.6395C25.5177 24.6844 25.5422 24.7292 25.5657 24.7746C25.5895 24.8204 25.6121 24.8669 25.6351 24.9132C25.6576 24.9587 25.6805 25.0041 25.7023 25.0501C25.7245 25.0971 25.7456 25.1445 25.7668 25.1919C25.7877 25.2382 25.8089 25.2842 25.8289 25.3309C25.8495 25.3787 25.8687 25.4271 25.8884 25.4755C25.9076 25.5224 25.9271 25.5692 25.9453 25.6166C25.9643 25.6656 25.982 25.7152 26 25.7646C26.0173 25.8119 26.035 25.859 26.0515 25.9066C26.0689 25.957 26.0849 26.0079 26.1013 26.0586C26.1167 26.1061 26.1327 26.1534 26.1471 26.2012C26.1629 26.2527 26.1771 26.3048 26.1919 26.3567C26.2054 26.4044 26.2195 26.4518 26.2323 26.4998C26.2463 26.5527 26.2588 26.6061 26.2718 26.6593C26.2835 26.707 26.2958 26.7545 26.3066 26.8025C26.3189 26.8568 26.3295 26.9116 26.3408 26.9662C26.3506 27.0136 26.361 27.0609 26.37 27.1086C26.3806 27.1645 26.3893 27.2208 26.3987 27.2771C26.4066 27.3242 26.4153 27.3709 26.4223 27.4183C26.431 27.4766 26.438 27.5353 26.4455 27.5939C26.4514 27.6396 26.4582 27.685 26.4633 27.731C26.4702 27.793 26.4753 27.8555 26.4809 27.918C26.4847 27.9609 26.4896 28.0035 26.4928 28.0465C26.4981 28.1174 26.5013 28.1887 26.5047 28.2599C26.5065 28.2948 26.5093 28.3296 26.5105 28.3646C26.5145 28.4712 26.5165 28.5781 26.5165 28.6854V29.7793V31.1089H9.48327V31.1089ZM28.4162 27.8465C28.3972 27.611 28.37 27.377 28.3354 27.1445C28.3299 27.1077 28.3233 27.0711 28.3174 27.0344C28.304 26.9502 28.2899 26.8662 28.2744 26.7825C28.2662 26.7385 28.2572 26.6946 28.2484 26.6506C28.2332 26.5742 28.2174 26.4979 28.2004 26.4219C28.1902 26.3761 28.1796 26.3303 28.1687 26.2847C28.1511 26.2101 28.1325 26.1358 28.1132 26.0616C28.1015 26.0167 28.0898 25.9719 28.0774 25.927C28.0563 25.8499 28.0336 25.7731 28.0106 25.6965C27.9985 25.6561 27.9869 25.6156 27.9742 25.5753C27.9457 25.4846 27.9155 25.3943 27.8845 25.3042C27.8758 25.2791 27.8679 25.2537 27.859 25.2285C27.8182 25.113 27.7754 24.9982 27.7304 24.8841C27.7208 24.8596 27.7102 24.8355 27.7004 24.811C27.6647 24.7224 27.6282 24.6339 27.59 24.5462C27.5731 24.5072 27.5552 24.4688 27.5378 24.43C27.505 24.357 27.4717 24.2842 27.4371 24.2119C27.4169 24.1696 27.396 24.1275 27.3753 24.0855C27.3413 24.0168 27.3066 23.9485 27.2712 23.8806C27.2489 23.838 27.2266 23.7957 27.2038 23.7535C27.1671 23.6855 27.1294 23.6181 27.0911 23.5508C27.0681 23.5104 27.0454 23.47 27.0219 23.4299C26.9794 23.3573 26.9354 23.2855 26.891 23.2138C26.8703 23.1804 26.8502 23.1466 26.8291 23.1135C26.7629 23.0092 26.695 22.9057 26.6249 22.8033C26.5595 22.708 26.4924 22.6145 26.4243 22.5217C26.4046 22.4948 26.3845 22.4682 26.3646 22.4416C26.3123 22.3717 26.2593 22.3027 26.2054 22.2343C26.186 22.2096 26.1668 22.1847 26.1471 22.1602C26.0756 22.0711 26.003 21.983 25.9289 21.8965C25.9193 21.8853 25.9093 21.8743 25.8996 21.8631C25.8343 21.7875 25.7678 21.7128 25.7004 21.6392C25.6772 21.6139 25.6539 21.5888 25.6306 21.5637C25.5708 21.4996 25.5102 21.4363 25.449 21.3739C25.4288 21.3533 25.4089 21.3325 25.3886 21.3121C25.3088 21.2321 25.2278 21.1532 25.1457 21.0759C25.1288 21.06 25.1114 21.0445 25.0944 21.0287C25.0272 20.9663 24.9593 20.905 24.8907 20.8444C24.8646 20.8214 24.8383 20.7986 24.812 20.7758C24.7436 20.7168 24.6745 20.6587 24.6046 20.6015C24.5856 20.5859 24.5669 20.57 24.5478 20.5545C24.4602 20.4838 24.3714 20.4146 24.2816 20.3467C24.2592 20.3298 24.2364 20.3134 24.2139 20.2966C24.1435 20.2445 24.0727 20.193 24.001 20.1426C23.9728 20.1228 23.9447 20.1031 23.9165 20.0835C23.8365 20.0283 23.7558 19.9742 23.6742 19.9213C23.6599 19.912 23.6459 19.9023 23.6316 19.8931C23.5492 19.8403 23.4663 19.7884 23.3824 19.7377C23.4041 19.7171 23.4244 19.6952 23.4457 19.6743C23.5056 19.6163 23.5645 19.5574 23.6225 19.4975C23.6549 19.464 23.6871 19.4305 23.7188 19.3965C23.7821 19.3288 23.8437 19.2598 23.9046 19.1899C23.9305 19.1602 23.9565 19.1308 23.9819 19.1006C24.0468 19.0239 24.1098 18.9455 24.1717 18.8661C24.192 18.8402 24.2128 18.8147 24.2327 18.7885C24.2949 18.7069 24.3549 18.6236 24.4139 18.5395C24.7911 18.5949 25.1711 18.6229 25.55 18.6229C26.86 18.6229 28.095 18.2979 29.1812 17.7269C32.1633 19.1397 34.0666 22.1121 34.0666 25.4231V27.8465H28.4162V27.8465Z" fill="#70C2DB"/>
</svg>
