<svg width="36" height="36" viewBox="0 0 36 36" fill="none" xmlns="http://www.w3.org/2000/svg">
<g clip-path="url(#clip0_138_539)">
<path d="M35.2986 11.0132C35.7195 10.8636 36.0005 10.465 36 10.0182C35.9994 9.57148 35.7175 9.17358 35.2962 9.02494L18.3509 3.0462C18.1239 2.96604 17.8762 2.96604 17.6491 3.0462L0.703829 9.02494C0.282517 9.17351 0.000563343 9.57148 8.42838e-07 10.0182C-0.000561657 10.465 0.280477 10.8636 0.701438 11.0132L7.4141 13.3996V20.2795C7.4141 21.415 8.59866 22.3752 10.9349 23.1335C12.9712 23.7944 15.4804 24.1584 18.0001 24.1584C20.5198 24.1584 23.0289 23.7944 25.0653 23.1335C27.4015 22.3752 28.586 21.4151 28.586 20.2795V13.3996L31.3575 12.4144V21.9476C30.125 22.3834 29.2394 23.5597 29.2394 24.9395C29.2394 26.3194 30.125 27.4957 31.3575 27.9315V31.9593C31.3575 32.5418 31.8298 33.014 32.4122 33.014C32.9947 33.014 33.4669 32.5418 33.4669 31.9593V27.9315C34.6994 27.4957 35.5851 26.3194 35.5851 24.9395C35.5851 23.5597 34.6994 22.3834 33.4669 21.9476V11.6644L35.2986 11.0132ZM32.4122 26.003C31.8258 26.003 31.3487 25.5259 31.3487 24.9395C31.3487 24.3531 31.8258 23.876 32.4122 23.876C32.9986 23.876 33.4756 24.3531 33.4756 24.9395C33.4756 25.5259 32.9986 26.003 32.4122 26.003ZM18 5.15916L31.7861 10.0233L18 14.9243L4.2139 10.0232L18 5.15916ZM26.4766 20.1205C26.2744 20.3243 25.5508 20.8123 23.9175 21.2783C22.1751 21.7753 20.0735 22.0491 18 22.0491C15.9265 22.0491 13.825 21.7753 12.0825 21.2783C10.4492 20.8123 9.72556 20.3244 9.52341 20.1205V14.1495L17.6467 17.0374C17.7609 17.078 17.8805 17.0984 17.9999 17.0984C18.1195 17.0984 18.2389 17.078 18.3532 17.0374L26.4765 14.1495V20.1205H26.4766Z" fill="#038E00"/>
</g>
<defs>
<clipPath id="clip0_138_539">
<rect width="36" height="36" fill="white"/>
</clipPath>
</defs>
</svg>
