<svg width="36" height="36" viewBox="0 0 36 36" fill="none" xmlns="http://www.w3.org/2000/svg">
<g clip-path="url(#clip0_136_109)">
<path d="M34.6205 7.35089C33.2392 5.45013 30.8201 3.7345 27.8089 2.52021C24.814 1.31252 21.3366 0.64469 18.0172 0.639909C14.6976 0.631612 11.2159 1.29255 8.21664 2.49089C5.20023 3.69611 2.77536 5.40428 1.38901 7.30054C0.0574347 9.12185 -0.326331 11.0849 0.27913 12.9775C0.671896 14.2053 1.81764 15.0314 3.13086 15.0333L7.62742 15.0375C7.6289 15.0375 7.63037 15.0375 7.63192 15.0375C8.52854 15.0374 9.37096 14.645 9.94344 13.9602C10.5099 13.2827 10.7445 12.3974 10.5872 11.531C10.5827 11.5056 10.577 11.4803 10.5706 11.4552L10.334 10.5353C11.6442 9.91019 14.6128 8.70236 18.0034 8.72156C21.3914 8.73892 24.358 9.94605 25.6698 10.5715L25.4294 11.4861C25.4226 11.512 25.4168 11.5381 25.4119 11.5643C25.2522 12.4302 25.4843 13.3162 26.0487 13.9953C26.6202 14.6829 27.4633 15.0779 28.3622 15.0793L32.8588 15.0835C32.8603 15.0835 32.8618 15.0835 32.8633 15.0835C34.174 15.0834 35.3201 14.2611 35.7159 13.0359C36.3269 11.1438 35.9482 9.17789 34.6205 7.35089ZM33.6712 12.3754C33.5647 12.705 33.2326 12.935 32.8625 12.935C32.8622 12.935 32.8617 12.935 32.8612 12.935L28.3647 12.9307C28.1057 12.9304 27.8637 12.8178 27.7009 12.6219C27.6123 12.5153 27.4742 12.2938 27.5194 11.9857L27.9667 10.2839C28.0893 9.81752 27.8861 9.32674 27.4698 9.08331C27.2964 8.98192 23.1618 6.59932 18.0143 6.57281C17.9857 6.57267 17.9579 6.5726 17.9294 6.5726C12.8151 6.5726 8.70995 8.9448 8.53677 9.04633C8.12312 9.28891 7.92034 9.77617 8.0398 10.2407L8.47827 11.9452C8.52306 12.2539 8.38405 12.4755 8.29511 12.5819C8.13205 12.777 7.89032 12.8888 7.63129 12.8888C7.63086 12.8888 7.63044 12.8888 7.63002 12.8888L3.1334 12.8845C2.76334 12.884 2.43111 12.6529 2.32551 12.3226C1.93232 11.0935 2.20077 9.83032 3.12341 8.56835C5.57429 5.21613 11.818 2.78817 17.9806 2.78817C17.9916 2.78817 18.0033 2.78817 18.0143 2.78817C24.1829 2.79703 30.436 5.24707 32.8827 8.61377C33.803 9.88059 34.0684 11.1461 33.6712 12.3754Z" fill="#00C874"/>
<path d="M28.1669 19.6739L24.8136 16.153C24.6108 15.9401 24.3297 15.8197 24.0357 15.8197H21.8687V14.3555C21.8687 13.7622 21.3878 13.2813 20.7945 13.2813C20.2012 13.2813 19.7202 13.7622 19.7202 14.3555V15.8197H16.2804V14.3555C16.2804 13.7622 15.7995 13.2813 15.2062 13.2813C14.6129 13.2813 14.1319 13.7622 14.1319 14.3555V15.8197H11.965C11.671 15.8197 11.3898 15.9402 11.1871 16.153L7.83391 19.6739C5.20478 22.4345 3.75684 26.0543 3.75684 29.8666V34.2859C3.75684 34.8792 4.23777 35.3601 4.83107 35.3601H31.1696C31.7629 35.3601 32.2438 34.8792 32.2438 34.2859V29.8666C32.2439 26.0543 30.796 22.4345 28.1669 19.6739ZM5.9053 33.2117V29.8666C5.9053 26.6085 7.14273 23.5149 9.38978 21.1555L12.4255 17.968H23.5753L26.611 21.1555C28.8579 23.5148 30.0953 26.6085 30.0953 29.8666V33.2117H5.9053Z" fill="#00C874"/>
<path d="M18.0005 20.1892C14.9005 20.1892 12.3784 22.7113 12.3784 25.8113C12.3784 28.9114 14.9005 31.4335 18.0005 31.4335C21.1006 31.4335 23.6227 28.9114 23.6227 25.8113C23.6227 22.7112 21.1006 20.1892 18.0005 20.1892ZM18.0005 29.285C16.0851 29.285 14.5269 27.7267 14.5269 25.8113C14.5269 23.8959 16.0852 22.3376 18.0005 22.3376C19.9159 22.3376 21.4742 23.8959 21.4742 25.8113C21.4742 27.7267 19.9159 29.285 18.0005 29.285Z" fill="#00C874"/>
</g>
<defs>
<clipPath id="clip0_136_109">
<rect width="36" height="36" fill="white"/>
</clipPath>
</defs>
</svg>
