<svg width="36" height="36" viewBox="0 0 36 36" fill="none" xmlns="http://www.w3.org/2000/svg">
<path d="M32.1325 29.6719H30.6561V21.4453H32.1325C32.498 21.4453 32.8375 21.256 33.0296 20.9451C33.2218 20.6342 33.2393 20.2459 33.0758 19.919L30.9664 15.7C30.7877 15.3427 30.4225 15.117 30.023 15.117H26.7401L19.0545 10.3136V7.38288H23.6246C24.2071 7.38288 24.6793 6.91066 24.6793 6.3282V2.10938C24.6793 1.52691 24.2071 1.05469 23.6246 1.05469H19.0545C19.0545 0.472219 18.5823 0 17.9999 0C17.4174 0 16.9452 0.472219 16.9452 1.05469V10.3136L9.25959 15.117H5.9767C5.57719 15.117 5.21205 15.3427 5.03339 15.7L2.92395 19.919C2.76047 20.2459 2.77798 20.6342 2.97014 20.9451C3.1623 21.256 3.50177 21.4453 3.86733 21.4453H5.34368V29.6719H3.86719C3.28472 29.6719 2.8125 30.1441 2.8125 30.7266V34.9452C2.8125 35.5277 3.28472 35.9999 3.86719 35.9999H32.1324C32.7149 35.9999 33.1871 35.5277 33.1871 34.9452V30.7266C33.1871 30.1441 32.7149 29.6719 32.1325 29.6719V29.6719ZM28.5467 29.6719H26.4374V21.4453H28.5467V29.6719ZM21.1639 29.6719V21.4453H24.328V29.6719H21.1639ZM16.9452 29.6719V21.4453H19.0545V29.6719H16.9452ZM11.6717 29.6719V21.4453H14.8358V29.6719H11.6717ZM22.5699 3.16406V5.27344H19.0545V3.16406H22.5699ZM17.9999 12.1419L22.7601 15.117H13.2396L17.9999 12.1419ZM6.6285 17.2264H29.3712L30.4259 19.3359H5.57374L6.6285 17.2264ZM7.45291 21.4453H9.56229V29.6719H7.45291V21.4453ZM31.0778 33.8906H4.92188V31.7812H31.0777V33.8906H31.0778Z" fill="#4670C1"/>
</svg>
