<svg width="153" height="39" viewBox="0 0 153 39" fill="none" xmlns="http://www.w3.org/2000/svg">
<path d="M121.96 16.9292C123.772 19.1804 124.821 22.0696 124.821 25.4066C124.821 33.4976 118.635 39 110.357 39C102.072 39 95.892 33.4976 95.892 25.4066C95.892 22.0758 96.9411 19.1804 98.7532 16.9292L104.571 21.1802C103.712 22.3089 103.204 23.7381 103.204 25.4066C103.204 29.5595 106.326 32.3076 110.357 32.3076C114.388 32.3076 117.509 29.5595 117.509 25.4066C117.509 23.7443 117.001 22.3089 116.142 21.1802L121.96 16.9292ZM23.6074 16.6347C22.0497 13.3652 19.0932 11.8071 15.272 11.8071C11.1329 11.8071 8.49435 13.6719 6.88576 16.4262V12.4328H0V38.3743H7.09558V25.9771C7.09558 21.1495 8.9267 18.4014 12.9005 18.4014C16.0731 18.4014 17.7962 20.2662 17.7962 24.0019V38.3743H24.8918V25.9771C24.8918 21.1495 26.7737 18.4014 30.8047 18.4014C33.9774 18.4014 35.6432 20.2662 35.6432 24.0019V38.3743H42.796V22.6033C42.796 15.5981 38.7078 11.8133 32.6295 11.8133C28.4459 11.8071 25.3305 13.6781 23.6074 16.6347ZM51.1886 9.37186C53.8209 9.37186 55.7028 7.50707 55.7028 5.01046C55.7028 2.4709 53.8209 0.599976 51.1886 0.599976C48.5564 0.599976 46.6744 2.46477 46.6744 5.01046C46.6744 7.50707 48.5564 9.37186 51.1886 9.37186ZM54.7428 12.4328H47.6472V38.3743H54.7428V12.4328ZM67.3063 2.05378H60.1535V38.3743H67.3063V2.05378ZM79.6409 2.05378H72.4881V38.3743H79.6409V2.05378ZM88.5803 9.37186C91.2125 9.37186 93.0945 7.50707 93.0945 5.01046C93.0945 2.4709 91.2125 0.599976 88.5803 0.599976C85.9481 0.599976 84.0661 2.46477 84.0661 5.01046C84.0597 7.50707 85.9417 9.37186 88.5803 9.37186ZM92.1281 12.4328H85.0325V38.3743H92.1281V12.4328ZM127.886 38.3743H134.981V25.9771C134.981 21.0452 136.971 18.4014 140.735 18.4014C144.016 18.4014 145.739 20.3214 145.739 24.0019V38.3743H153V22.1371C153 15.549 149.56 11.8133 143.533 11.8133C139.928 11.8133 136.812 13.3714 134.765 16.3771V12.4328H127.879V38.3743H127.886ZM105.658 10.9729C103.369 10.9729 101.519 12.7641 101.519 14.9662C101.519 17.1684 103.375 18.9596 105.658 18.9596C107.941 18.9596 109.797 17.1684 109.797 14.9662C109.797 12.7641 107.947 10.9729 105.658 10.9729ZM115.055 10.9729C112.766 10.9729 110.916 12.7641 110.916 14.9662C110.916 17.1684 112.773 18.9596 115.055 18.9596C117.338 18.9596 119.194 17.1684 119.194 14.9662C119.194 12.7641 117.344 10.9729 115.055 10.9729Z" fill="#EA3325"/>
</svg>
