<svg width="36" height="36" viewBox="0 0 36 36" fill="none" xmlns="http://www.w3.org/2000/svg">
<g clip-path="url(#clip0_136_132)">
<path d="M33.8246 13.4233C34.9881 13.4233 35.9346 12.4767 35.9346 11.3133V8.58128C35.9346 7.71499 35.4158 6.94717 34.6124 6.62385L18.7909 0.154661C18.2757 -0.05289 17.7182 -0.0492327 17.2161 0.151707C17.2044 0.15642 17.4809 0.043395 1.38719 6.62392C0.583785 6.94717 0.0649414 7.71506 0.0649414 8.58135V11.3134C0.0649414 12.4769 1.01148 13.4234 2.17492 13.4234H3.4409V29.3185H2.17492C1.01148 29.3185 0.0649414 30.2651 0.0649414 31.4285V33.8902C0.0649414 35.0536 1.01148 36.0001 2.17492 36.0001H33.8246C34.988 36.0001 35.9345 35.0536 35.9345 33.8902V31.4285C35.9345 30.2651 34.988 29.3185 33.8246 29.3185H32.5586V13.4234H33.8246V13.4233ZM33.8246 31.4284C33.826 33.9464 33.8317 33.89 33.8246 33.89H2.17499V31.4284H33.8246ZM5.55095 29.3184V13.4233H7.94226V29.3184H5.55095ZM10.0522 29.3184V13.4233H14.6942V29.3184H10.0522ZM16.8042 29.3184V13.4233H19.1955V29.3184H16.8042ZM21.3054 29.3184V13.4233H25.9474V29.3184H21.3054ZM28.0574 29.3184V13.4233H30.4487V29.3184H28.0574ZM2.17499 11.3133C2.17499 8.37035 2.17182 8.58254 2.18237 8.57825L17.9998 2.11068L33.8173 8.57825C33.8282 8.58261 33.8246 8.37731 33.8246 11.3133C33.474 11.3133 2.59171 11.3133 2.17499 11.3133Z" fill="#FF8C04"/>
<path d="M17.9998 4.56134C17.4172 4.56134 16.9448 5.03369 16.9448 5.61633V7.86697C16.9448 8.44961 17.4172 8.92196 17.9998 8.92196C18.5825 8.92196 19.0548 8.44961 19.0548 7.86697V5.61633C19.0548 5.03369 18.5825 4.56134 17.9998 4.56134V4.56134Z" fill="#FF8C04"/>
</g>
<defs>
<clipPath id="clip0_136_132">
<rect width="36" height="36" fill="white"/>
</clipPath>
</defs>
</svg>
