<svg width="48" height="48" viewBox="0 0 48 48" fill="none" xmlns="http://www.w3.org/2000/svg">
<g clip-path="url(#clip0_1638_4639)">
<path d="M47.8599 29.3954L45.157 14.716C44.5171 11.2409 41.4941 8.71875 37.9687 8.71875H33.0043C32.6665 8.71875 32.3398 8.84044 32.0844 9.06141L29.2284 11.5318H18.772L15.916 9.06141C15.6604 8.84034 15.3339 8.71875 14.996 8.71875H10.0317C6.50629 8.71875 3.48322 11.2409 2.84338 14.7159L0.140475 29.3954C-0.684713 33.8765 2.21432 38.1913 6.66932 39.1073C9.79354 39.7496 12.9545 38.5841 14.9188 36.0656L18.0064 32.107H29.9941L33.0817 36.0656C35.034 38.5688 38.1877 39.7535 41.3312 39.1073C45.7757 38.1935 48.6868 33.8859 47.8599 29.3954ZM40.7647 36.3527C38.6958 36.7782 36.6013 36.0054 35.2993 34.3361L31.7895 29.8362C31.5231 29.4946 31.114 29.2948 30.6807 29.2948H17.3197C16.8864 29.2948 16.4773 29.4946 16.2108 29.8362L12.701 34.3361C11.399 36.0054 9.30472 36.7782 7.23566 36.3527C4.28385 35.7458 2.35804 32.8826 2.90638 29.9047L5.60929 15.2251C6.00341 13.0845 7.86322 11.5309 10.0316 11.5309H14.472L17.328 14.0013C17.5836 14.2223 17.9101 14.3439 18.248 14.3439H29.7521C30.0899 14.3439 30.4166 14.2222 30.672 14.0013L33.528 11.5309H37.9685C40.1368 11.5309 41.9967 13.0845 42.3908 15.2251L45.094 29.9046C45.6418 32.88 43.7191 35.7454 40.7647 36.3527Z" fill="#F00101"/>
<path d="M15.6366 20.42H13.5991V18.3826C13.5991 17.6061 12.9695 16.9766 12.1929 16.9766C11.4163 16.9766 10.7866 17.6061 10.7866 18.3826V20.42H8.74927C7.97264 20.42 7.34302 21.0495 7.34302 21.8261C7.34302 22.6026 7.97264 23.2321 8.74927 23.2321H10.7867V25.2694C10.7867 26.0459 11.4164 26.6755 12.193 26.6755C12.9696 26.6755 13.5992 26.0459 13.5992 25.2694V23.2322H15.6367C16.4133 23.2322 17.043 22.6027 17.043 21.8261C17.0429 21.0495 16.4132 20.42 15.6366 20.42Z" fill="#F00101"/>
<path d="M36.3138 16.4846C33.3683 16.4846 30.9719 18.8808 30.9719 21.8261C30.9719 24.7714 33.3683 27.1675 36.3138 27.1675C39.2593 27.1675 41.6557 24.7714 41.6557 21.8261C41.6556 18.8807 39.2592 16.4846 36.3138 16.4846ZM36.3138 24.3552C34.9191 24.3552 33.7844 23.2207 33.7844 21.826C33.7844 20.4314 34.9191 19.2967 36.3138 19.2967C37.7085 19.2967 38.8432 20.4314 38.8432 21.826C38.8432 23.2207 37.7085 24.3552 36.3138 24.3552Z" fill="#F00101"/>
</g>
<defs>
<clipPath id="clip0_1638_4639">
<rect width="48" height="48" fill="white"/>
</clipPath>
</defs>
</svg>
