<svg width="36" height="36" viewBox="0 0 36 36" fill="none" xmlns="http://www.w3.org/2000/svg">
<path d="M31.7812 2.53125H4.21875C1.89253 2.53125 0 4.42378 0 6.75V23.625C0 25.9512 1.89253 27.8438 4.21875 27.8438H16.5938V30.6562H9.28125V33.4688H26.7188V30.6562H19.4062V27.8438H31.7812C34.1075 27.8438 36 25.9512 36 23.625V6.75C36 4.42378 34.1075 2.53125 31.7812 2.53125ZM33.1875 23.625C33.1875 24.4004 32.5567 25.0312 31.7812 25.0312H4.21875C3.44334 25.0312 2.8125 24.4004 2.8125 23.625V6.75C2.8125 5.97459 3.44334 5.34375 4.21875 5.34375H31.7812C32.5567 5.34375 33.1875 5.97459 33.1875 6.75V23.625Z" fill="#F542EE"/>
</svg>
